# xmcd CD database file
#
# Track frame offsets:
#	182
#	28360
#	64210
#	79070
#	110540
#	144650
#
# Disc length: 2261 seconds
#
# Revision: 0
# Processed by: cddbd v1.4PL0 Copyright (c) Steve Scherf et al.
# Submitted via: CDex 1.51
#
DISCID=5408d306
DTITLE=Eric Aubier - TOOT SUITE
DYEAR=1998
DGENRE=Jazz
TTITLE0=Claude Bolling - Toot Suite - 1. Allegre
TTITLE1=Claude Bolling - Toot Suite - 2. Mystique
TTITLE2=Claude Bolling - Toot Suite - 3. Rag Polka
TTITLE3=Claude Bolling - Toot Suite - 4. Marche
TTITLE4=Claude Bolling - Toot Suite - 5. Vesperale
TTITLE5=Claude Bolling - Toot Suite - 6. Spirituelle
EXTD=YEAR: 1998
EXTT0=
EXTT1=
EXTT2=
EXTT3=
EXTT4=
EXTT5=
PLAYORDER=
